<svg xmlns="http://www.w3.org/2000/svg" viewBox="0 0 512 512" width="512" height="512">
  <defs>
    <linearGradient id="bg" x1="0" y1="0" x2="0" y2="1">
      <stop offset="0" stop-color="#7C3AED"/>
      <stop offset="1" stop-color="#4C1D95"/>
    </linearGradient>
  </defs>
  <rect width="512" height="512" fill="url(#bg)"/>
  <g transform="translate(256 256) scale(1.12) translate(-256 -256)">
    <!-- chispa mágica -->
    <path d="M256 128 L270 162 L304 176 L270 190 L256 224 L242 190 L208 176 L242 162 Z" fill="#EA580C"/>
    <circle cx="196" cy="150" r="10" fill="#FAF7F2" opacity="0.9"/>
    <circle cx="322" cy="158" r="8" fill="#FAF7F2" opacity="0.8"/>
    <!-- pomo de la tapa (guiño al gorro de mago) -->
    <path d="M256 226 C268 238 268 247 256 251 C244 247 244 238 256 226 Z" fill="#FAF7F2"/>
    <!-- tapa -->
    <rect x="166" y="258" width="180" height="28" rx="14" fill="#FAF7F2"/>
    <!-- asas -->
    <rect x="150" y="300" width="26" height="46" rx="13" fill="#FAF7F2"/>
    <rect x="336" y="300" width="26" height="46" rx="13" fill="#FAF7F2"/>
    <!-- cuerpo de la olla -->
    <path d="M176 286 H336 V318 a58 58 0 0 1 -58 58 H234 a58 58 0 0 1 -58 -58 Z" fill="#FAF7F2"/>
  </g>
</svg>
